# xmcd
#
# Track frame offsets: 
#        150
#        24373
#        42385
#        59770
#        74515
#        87859
#        113439
#        133259
#        153061
#        167917
#        187255
#        214074
#        231526
#        244233
#        256270
#        275640
#        291969
#        306594
#
# Disc length: 4542 seconds
#
# Revision: 0
# Processed by: cddbd v1.5.2PL0 Copyright (c) Steve Scherf et al.
# Submitted via: ExactAudioCopy v0.95b4
#
DISCID=1a11bc12
DTITLE=Various Artist - Eighties [CD2)
DYEAR=2007
DGENRE=Blues
TTITLE0=T'Pau - China In Your Hand
TTITLE1=Katrina - Walking on Sunshine
TTITLE2=Odyssey - Going Back To My Roots
TTITLE3=Modern Romance - Everybody Salsa
TTITLE4=Bad Manners - Lip Up Fatty
TTITLE5=Heaven 17 - Fascist Groove thing
TTITLE6=Imagination - Flashback
TTITLE7=All About Eve - In the Clouds
TTITLE8=Electric Light orchestra (ELO)-Part 2 - Rock and Roll is King
TTITLE9=Hazel O'Connor - D-Days
TTITLE10=Kool and The Gang - Cherish
TTITLE11=Limahl - Ooh To Be Ah
TTITLE12=Selecter - The Whisper
TTITLE13=Tom Jones and Dionne Warwick - Endless Love
TTITLE14=Living In a Box - Scales Of justice
TTITLE15=Jaki Graham - Set Me Free
TTITLE16=The Four Tops - When She Was My Girl
TTITLE17=Marvin Gaye - Rockin' After Midnight
EXTD=
EXTT0=
EXTT1=
EXTT2=
EXTT3=
EXTT4=
EXTT5=
EXTT6=
EXTT7=
EXTT8=
EXTT9=
EXTT10=
EXTT11=
EXTT12=
EXTT13=
EXTT14=
EXTT15=
EXTT16=
EXTT17=
PLAYORDER=
